<?xml version="1.0" encoding="UTF-8"?>
<!DOCTYPE svg PUBLIC "-//W3C//DTD SVG 1.1//EN" "http://www.w3.org/Graphics/SVG/1.1/DTD/svg11.dtd">
<!-- Creator: CorelDRAW 2021 (64-Bit) -->
<svg xmlns="http://www.w3.org/2000/svg" xml:space="preserve" width="8.5in" height="8.5in" version="1.1" style="shape-rendering:geometricPrecision; text-rendering:geometricPrecision; image-rendering:optimizeQuality; fill-rule:evenodd; clip-rule:evenodd"
viewBox="0 0 8500 8500"
 xmlns:xlink="http://www.w3.org/1999/xlink"
 xmlns:xodm="http://www.corel.com/coreldraw/odm/2003">
 <defs>
  <style type="text/css">
   <![CDATA[
    .fil0 {fill:#48887B;fill-rule:nonzero}
   ]]>
  </style>
 </defs>
 <g id="Layer_x0020_1">
  <metadata id="CorelCorpID_0Corel-Layer"/>
  <path class="fil0" d="M8076.64 2002.73l-1581.3 -1581.3c-68.44,-68.01 -161.13,-106.33 -257.66,-106.33 -0.44,0 -0.94,0 -1.38,0 -96.82,0.46 -189.78,38.63 -259.02,106.31l-1581.31 1581.31 -0.02 0.01 -3033.09 3035.02c-65.68,65.98 -104.39,154.4 -108.26,247.45l-48.33 1631.57c-0.11,4.42 -0.24,9.03 -0.24,13.51 0,96.41 38.38,189.01 106.57,257.12 69.25,67.69 162.22,105.86 259.06,106.31l11.58 0 1631.57 -50.26c93.09,-2.24 181.76,-40.37 247.43,-106.35l4614.41 -4614.37c68.57,-69.11 107.07,-162.64 107.07,-260.01 0,-97.37 -38.5,-190.9 -107.06,-260.01l-0.01 0zm-1840.34 1322.27l-1061.29 -1061.29 1061.29 -1063.22 1063.22 1061.29 -1063.22 1063.22zm-3189.68 3189.67l-1096.09 34.8 32.86 -1096.09 2671.59 -2671.59 1063.22 1061.29 -2671.59 2671.59z"/>
  <path class="fil0" d="M8043.78 3792.81c-251.92,-0 -456.22,204.3 -456.22,456.22l0 3338.53 -6675.12 0 0 -6675.12 3336.59 0c251.92,0 456.22,-204.3 456.22,-456.22 0,-251.92 -204.3,-456.22 -456.22,-456.22l-3792.81 0c-251.92,0 -456.22,204.3 -456.22,456.22l-0 7587.56c0,251.92 204.3,456.22 456.22,456.22l7587.56 0c251.92,-0 456.22,-204.3 456.22,-456.22l0 -3794.74c0,-251.92 -204.3,-456.22 -456.22,-456.22l0 0z"/>
 </g>
</svg>
