<?xml version="1.0" encoding="UTF-8"?>
<!DOCTYPE svg PUBLIC "-//W3C//DTD SVG 1.1//EN" "http://www.w3.org/Graphics/SVG/1.1/DTD/svg11.dtd">
<!-- Creator: CorelDRAW 2021 (64-Bit) -->
<svg xmlns="http://www.w3.org/2000/svg" xml:space="preserve" width="2.38585in" height="2.86274in" version="1.1" style="shape-rendering:geometricPrecision; text-rendering:geometricPrecision; image-rendering:optimizeQuality; fill-rule:evenodd; clip-rule:evenodd"
viewBox="0 0 2385.85 2862.74"
 xmlns:xlink="http://www.w3.org/1999/xlink"
 xmlns:xodm="http://www.corel.com/coreldraw/odm/2003">
 <defs>
  <style type="text/css">
   <![CDATA[
    .fil0 {fill:#CB7371;fill-rule:nonzero}
   ]]>
  </style>
 </defs>
 <g id="Layer_x0020_1">
  <metadata id="CorelCorpID_0Corel-Layer"/>
  <g id="_2351697167536">
   <path class="fil0" d="M1192.9 2466.57c46.31,0 83.85,-37.54 83.85,-83.85l0 -1126.14c0,-46.37 -37.54,-83.91 -83.85,-83.91 -46.31,0 -83.85,37.54 -83.85,83.91l0 1126.14c0,46.31 37.55,83.85 83.85,83.85z"/>
   <path class="fil0" d="M731.1 2390.56c4.38,46.2 45.39,80.01 91.37,75.63 46.15,-4.33 79.96,-45.28 75.63,-91.37l-106.36 -1126.14c-4.33,-46.15 -45.17,-80.02 -91.37,-75.63 -46.09,4.33 -79.96,45.28 -75.57,91.37l106.3 1126.14z"/>
   <path class="fil0" d="M1563.32 2466.19c46.09,4.33 87.05,-29.43 91.43,-75.58l106.31 -1126.19c4.38,-46.09 -29.48,-86.99 -75.58,-91.37 -46.2,-4.38 -87.05,29.48 -91.43,75.63l-106.31 1126.14c-4.38,46.09 29.48,87.05 75.58,91.37z"/>
   <path class="fil0" d="M83.85 944.2l50.15 0 242.91 1845.61c5.52,41.76 41.06,72.93 83.15,72.93l1465.72 0c42.09,0 77.63,-31.16 83.15,-72.93l242.91 -1845.61 50.15 0c46.31,0 83.85,-37.54 83.85,-83.85l0 -366.96c0,-46.31 -37.54,-83.85 -83.85,-83.85l-717.69 0 0 -33.06c0,-207.58 -168.9,-376.48 -376.48,-376.48l-29.81 0c-207.58,0 -376.48,168.9 -376.48,376.48l0 33.06 -717.69 0c-46.31,0 -83.85,37.54 -83.85,83.85l0 366.96c0,46.31 37.54,83.85 83.85,83.85zm1768.36 1750.83l-1318.57 0 -230.46 -1750.83 1779.5 0 -230.46 1750.83zm-882.96 -2318.55c0,-115.13 93.7,-208.77 208.77,-208.77l29.81 0c115.07,0 208.72,93.65 208.72,208.77l0 33.06 -447.3 0 0 -33.06zm-801.54 200.76l2050.43 0 0 199.25c-17.96,0 -2028.04,0 -2050.43,0l0 -199.25z"/>
  </g>
 </g>
</svg>
